<?xml version="1.0" encoding="UTF-8"?>
<svg version="1.1" xmlns="http://www.w3.org/2000/svg" width="188" height="53">
<path d="M0 0 C9.24 0 18.48 0 28 0 C28 5.94 28 11.88 28 18 C32.29 18 36.58 18 41 18 C41 19.32 41 20.64 41 22 C27.47 22 13.94 22 0 22 C0 14.74 0 7.48 0 0 Z M7 4 C7 5.65 7 7.3 7 9 C9.97 9 12.94 9 16 9 C16 10.32 16 11.64 16 13 C13.03 13 10.06 13 7 13 C7 14.65 7 16.3 7 18 C11.62 18 16.24 18 21 18 C21 13.38 21 8.76 21 4 C16.38 4 11.76 4 7 4 Z " fill="#6C35AE" transform="translate(48,19)"/>
<path d="M0 0 C2.31 0 4.62 0 7 0 C7 0.99 7 1.98 7 3 C7.99 3 8.98 3 10 3 C10 3.99 10 4.98 10 6 C10.66 6 11.32 6 12 6 C12 5.01 12 4.02 12 3 C12.99 3 13.98 3 15 3 C15 2.01 15 1.02 15 0 C17.31 0 19.62 0 22 0 C22 7.26 22 14.52 22 22 C19.69 22 17.38 22 15 22 C15 19.03 15 16.06 15 13 C14.34 13 13.68 13 13 13 C13 13.99 13 14.98 13 16 C12.01 16 11.02 16 10 16 C10 15.01 10 14.02 10 13 C9.01 13 8.02 13 7 13 C7 15.97 7 18.94 7 22 C4.69 22 2.38 22 0 22 C0 14.74 0 7.48 0 0 Z " fill="#953ECA" transform="translate(141,19)"/>
<path d="M0 0 C3.3 0 6.6 0 10 0 C10 0.99 10 1.98 10 3 C10.99 3 11.98 3 13 3 C13 3.99 13 4.98 13 6 C14.32 6 15.64 6 17 6 C17 11.28 17 16.56 17 22 C14.69 22 12.38 22 10 22 C10 20.02 10 18.04 10 16 C7.36 16 4.72 16 2 16 C2 17.98 2 19.96 2 22 C-0.31 22 -2.62 22 -5 22 C-5 16.72 -5 11.44 -5 6 C-4.01 6 -3.02 6 -2 6 C-2 5.01 -2 4.02 -2 3 C-1.34 3 -0.68 3 0 3 C0 2.01 0 1.02 0 0 Z M5 4 C5 4.99 5 5.98 5 7 C4.01 7 3.02 7 2 7 C2 8.98 2 10.96 2 13 C4.64 13 7.28 13 10 13 C10 11.02 10 9.04 10 7 C8.68 7 7.36 7 6 7 C5.67 6.01 5.34 5.02 5 4 Z " fill="#8B3BC1" transform="translate(123,19)"/>
<path d="M0 0 C7.26 0 14.52 0 22 0 C22 2.31 22 4.62 22 7 C21.01 7 20.02 7 19 7 C19 7.66 19 8.32 19 9 C17.68 9 16.36 9 15 9 C15 10.32 15 11.64 15 13 C14.34 13 13.68 13 13 13 C13 13.99 13 14.98 13 16 C12.01 16 11.02 16 10 16 C10 16.66 10 17.32 10 18 C13.96 18 17.92 18 22 18 C22 19.32 22 20.64 22 22 C14.74 22 7.48 22 0 22 C0 19.69 0 17.38 0 15 C0.99 15 1.98 15 3 15 C3 14.01 3 13.02 3 12 C3.66 12 4.32 12 5 12 C5 11.01 5 10.02 5 9 C5.99 9 6.98 9 8 9 C8 8.01 8 7.02 8 6 C9.32 6 10.64 6 12 6 C12 5.34 12 4.68 12 4 C8.04 4 4.08 4 0 4 C0 2.68 0 1.36 0 0 Z " fill="#6A3BC2" transform="translate(1,19)"/>
<path d="M0 0 C6.27 0 12.54 0 19 0 C19 0.99 19 1.98 19 3 C19.66 3 20.32 3 21 3 C21 6.3 21 9.6 21 13 C20.34 13 19.68 13 19 13 C19 13.99 19 14.98 19 16 C15.04 16 11.08 16 7 16 C7 17.98 7 19.96 7 22 C4.69 22 2.38 22 0 22 C0 14.74 0 7.48 0 0 Z M7 4 C7 6.97 7 9.94 7 13 C9.31 13 11.62 13 14 13 C14 10.03 14 7.06 14 4 C11.69 4 9.38 4 7 4 Z " fill="#923CC3" transform="translate(165,19)"/>
<path d="M0 0 C5.94 0 11.88 0 18 0 C18 1.32 18 2.64 18 4 C16.02 4 14.04 4 12 4 C12 8.62 12 13.24 12 18 C13.98 18 15.96 18 18 18 C18 19.32 18 20.64 18 22 C12.06 22 6.12 22 0 22 C0 20.68 0 19.36 0 18 C1.65 18 3.3 18 5 18 C5 13.38 5 8.76 5 4 C3.35 4 1.7 4 0 4 C0 2.68 0 1.36 0 0 Z " fill="#743DC7" transform="translate(27,19)"/>
<path d="M0 0 C2.31 0 4.62 0 7 0 C7 5.94 7 11.88 7 18 C10.96 18 14.92 18 19 18 C19 19.32 19 20.64 19 22 C12.73 22 6.46 22 0 22 C0 14.74 0 7.48 0 0 Z " fill="#863BC1" transform="translate(93,19)"/>
<path d="M0 0 C1.98 0 3.96 0 6 0 C6 5.94 6 11.88 6 18 C9.96 18 13.92 18 18 18 C18 18.66 18 19.32 18 20 C12.06 20 6.12 20 0 20 C0 13.4 0 6.8 0 0 Z " fill="#9747E6" transform="translate(70,20)"/>
</svg>
